<svg xmlns="http://www.w3.org/2000/svg" aria-hidden="true" style="position:absolute;width:0;height:0;overflow:hidden">
  <defs>
    <symbol id="icon-big-grad" viewBox="0 0 28 32">
      <path fill="#7d55ff" d="M14.922 22.211c-4.704 1.801-9.061.672-9.733-2.521s2.598-7.243 7.302-9.044c4.704-1.801 9.061-.672 9.733 2.521s-2.598 7.243-7.302 9.044z" opacity=".3" style="fill:var(--color1, #7d55ff)"/>
      <path fill="#00c5eb" d="M21.482 20.395c4.708-1.266 8.397-4.345 8.24-6.878s-4.101-3.56-8.808-2.294c-4.708 1.266-8.397 4.345-8.24 6.878s4.101 3.56 8.808 2.294z" opacity=".3" style="fill:var(--color2, #00c5eb)"/>
    </symbol>
    <symbol id="icon-grad" viewBox="0 0 38 32">
      <path fill="#d9d9d9" d="M25.697 17.758c0 .971-5.78 1.758-12.909 1.758S-.121 18.729-.121 17.758 5.659 16 12.788 16s12.909.787 12.909 1.758z" style="fill:var(--color3, #d9d9d9)"/>
      <path fill="#00c5eb" d="M25.697 17.758c0 .971-5.78 1.758-12.909 1.758S-.121 18.729-.121 17.758 5.659 16 12.788 16s12.909.787 12.909 1.758z" opacity=".5" style="fill:var(--color2, #00c5eb)"/>
      <path fill="#7d55ff" d="M6.182 14.242c0 .971-3.527 1.758-7.879 1.758s-7.879-.787-7.879-1.758 3.527-1.758 7.879-1.758 7.879.787 7.879 1.758z" opacity=".5" style="fill:var(--color1, #7d55ff)"/>
    </symbol>
    <symbol id="icon-mob-menu" viewBox="0 0 29 32">
      <path fill="#d9d9d9" d="M5.395 24.019c-.479-.385 1.423-3.55 4.249-7.07s5.505-6.061 5.984-5.677c.479.385-1.423 3.55-4.249 7.07s-5.505 6.061-5.984 5.677z" style="fill:var(--color3, #d9d9d9)"/>
      <path fill="#00c5eb" d="M5.395 24.019c-.479-.385 1.423-3.55 4.249-7.07s5.505-6.061 5.984-5.677c.479.385-1.423 3.55-4.249 7.07s-5.505 6.061-5.984 5.677z" opacity=".5" style="fill:var(--color2, #00c5eb)"/>
      <path fill="#7d55ff" d="M14.865 15.778c-.479-.385.53-2.438 2.255-4.586s3.511-3.578 3.99-3.193c.479.385-.53 2.438-2.255 4.586s-3.511 3.578-3.99 3.193z" opacity=".5" style="fill:var(--color1, #7d55ff)"/>
    </symbol>
    <symbol id="icon-twitter" viewBox="0 0 32 32">
      <path d="M30.134 5.599a13.49 13.49 0 0 1-3.882 1.892 5.548 5.548 0 0 0-6.155-1.54 5.545 5.545 0 0 0-3.564 5.249v1.236A13.184 13.184 0 0 1 5.406 6.835S.461 17.962 11.588 22.908a14.397 14.397 0 0 1-8.655 2.473c11.127 6.182 24.727 0 24.727-14.218a5.522 5.522 0 0 0-.099-1.026A9.55 9.55 0 0 0 30.133 5.6z"/>
    </symbol>
    <symbol id="icon-cib_linkedin-in" viewBox="0 0 32 32">
      <path d="M8.268 28H2.463V9.306h5.805V28zM5.362 6.756C3.506 6.756 2 5.218 2 3.362A3.366 3.366 0 0 1 5.362 0a3.366 3.366 0 0 1 3.362 3.362c0 1.856-1.506 3.394-3.362 3.394zM29.994 28h-5.792v-9.1c0-2.169-.044-4.95-3.018-4.95-3.018 0-3.481 2.356-3.481 4.794V28h-5.799V9.306h5.567v2.55h.081c.775-1.469 2.668-3.019 5.492-3.019 5.875 0 6.955 3.869 6.955 8.894V28h-.005z"/>
    </symbol>
    <symbol id="icon-facebook" viewBox="0 0 32 32">
      <path d="M22.4 2.666h-4a6.67 6.67 0 0 0-6.667 6.667v4h-4v5.333h4v10.667h5.333V18.666h4l1.333-5.333h-5.333v-4A1.335 1.335 0 0 1 18.4 7.999h4V2.666z"/>
    </symbol>
    <symbol id="icon-apple" viewBox="0 0 32 32">
      <path d="M19.883 10.667c-1.68 0-2.39.807-3.561.807-1.2 0-2.115-.802-3.571-.802-1.425 0-2.945.876-3.91 2.369-1.355 2.105-1.125 6.069 1.07 9.446.785 1.209 1.834 2.565 3.209 2.579h.025c1.195 0 1.55-.788 3.195-.797h.025c1.62 0 1.945.793 3.136.793h.025c1.375-.015 2.48-1.517 3.265-2.721.565-.866.775-1.301 1.209-2.281-3.175-1.214-3.685-5.746-.545-7.483-.959-1.208-2.305-1.908-3.575-1.908l.004-.002zM19.699 6.4c-.967.065-2.096.67-2.757 1.459-.6.716-1.093 1.778-.9 2.807h.077c1.03 0 2.085-.609 2.7-1.39.593-.743 1.043-1.796.879-2.877z"/>
    </symbol>
    <symbol id="icon-android" viewBox="0 0 28 32">
      <path d="M5.26 24.204c0 .836.708 1.518 1.578 1.518h1.804v4.3c0 1.089.908 1.979 2.023 1.979 1.119 0 2.023-.886 2.023-1.979v-4.303h3.149v4.3c0 1.089.908 1.979 2.023 1.979 1.119 0 2.023-.886 2.023-1.979v-4.3h1.804c.871 0 1.578-.682 1.578-1.518V10.087H5.26v14.117zM18.49 2.773 20.153.452c.096-.136.074-.318-.056-.407-.13-.086-.315-.043-.411.093L17.96 2.552c-1.137-.432-2.404-.671-3.734-.671s-2.597.239-3.734.671L8.766.141C8.67.005 8.484-.041 8.355.048c-.13.086-.152.264-.056.407l1.663 2.321C7.317 3.962 5.465 6.208 5.227 8.833h18.005c-.245-2.628-2.101-4.875-4.742-6.06zm-8.065 3.66c-.197 0-.39-.056-.554-.162s-.292-.256-.367-.431a.936.936 0 0 1 .216-1.047 1.03 1.03 0 0 1 1.086-.208.989.989 0 0 1 .447.354.934.934 0 0 1-.125 1.213 1.02 1.02 0 0 1-.704.282zm7.72 0c-.197 0-.39-.056-.554-.162s-.292-.256-.367-.431a.936.936 0 0 1 .216-1.047 1.03 1.03 0 0 1 1.086-.208c.182.073.338.196.447.354s.168.344.168.534c-.001.255-.106.499-.293.679s-.44.281-.704.282zm8.276 3.597c-1.119 0-2.023.886-2.023 1.979v7.728c0 1.089.908 1.979 2.023 1.979 1.119 0 2.023-.886 2.023-1.979v-7.732c.004-1.093-.9-1.975-2.023-1.975zm-24.399 0c-1.119 0-2.023.886-2.023 1.979v7.728c0 1.089.908 1.979 2.023 1.979 1.119 0 2.023-.886 2.023-1.979v-7.732c0-1.093-.908-1.975-2.023-1.975z"/>
    </symbol>
  </defs>
</svg>
